<svg xmlns="http://www.w3.org/2000/svg" id="Layer_2" data-name="Layer 2" viewBox="0 0 204.57 236.18"><defs><style>.cls-1{fill:#231f20}.cls-3{stroke:#231f20;stroke-miterlimit:10;stroke-width:.5px;fill:#c0d84d}</style></defs><g id="Layer_1-2" data-name="Layer 1"><g id="dragonfruit"><g id="dragonfruit_petals"><path d="M87.74 41.19s-7.51-18.9-24.11-11.07c3.31 10.85 2.43 20.91-2.32 30.23 10.33-5.33 19.28-11.63 26.43-19.16ZM38.54 77.13s-13.2-11.33-22.23-.6c4.99 5.83 7.08 13.25 6.73 22.04l15.5-21.44ZM13.31 131.94s-5.51 0-7.64-6.29c0 0-6.72 2.55-5.19 13.11 1.96 9.95 7.48 17.31 15.71 22.64-2.19-8.96-3.45-18.56-2.88-29.46ZM27.69 187.26s-11.51-9.79-18.2 2.04c0 0 8.93 6.03 9.96 11.57 6.25 7.52 13.61 8.55 22.14 2.8-5.4-5.09-10.11-10.52-13.9-16.42ZM71.5 221.82c-.47-.31-3.85 6.12-3.01 8.08 9.95 8.08 18.91 8.97 26.14-3.04-8.45-.88-16.24-2.47-23.12-5.04ZM129.44 222.03s4.33 5.84 3 7.53c-11.19 8.87-19.63 8.19-25.14-2.69 7.89-.91 15.31-2.47 22.14-4.84ZM175.06 185.32s13.15-6.83 16.76 4c0 0-5.79 2.97-9.36 9.69-5.41 8.85-12.69 11.12-22.44 4.59 6.08-5.79 11.19-11.85 15.04-18.27ZM187.53 149.81s6.59-7.32 10.67-2.91c.68 14.91-5.73 23.18-17.11 26.78 3.27-8.13 5.69-16.12 6.44-23.87ZM188.19 142.07s5.67-9.53 16.06-8.01c-2.4-11.23-8.96-13.98-17.68-12.12 1.35 5.99 1.76 12.81 1.63 20.14ZM162.84 76.28s-.56-12.77 9.4-15.59c0 0 .68 9.96 4.93 14.14 7.09 7.96 8.79 16.03 1.55 24.26-4.68-8.51-9.89-16.22-15.88-22.8ZM150.11 61.88s-10.21-19.07 2.04-32c-11.71-7.33-20.79-3.95-27.58 8.76l25.54 23.24Z" class="cls-3"/></g><g id="dragonfruit_body"><path d="M164.96 79.24h.03c-7.63-11.04-21.7-24.83-40.42-40.59-13.61-9.53-21.87-24.26-21.87-24.26-3.24-7.83 0-14.04 0-14.04S91.21-1.69 90.19 12.78c0 0 6.21 18.14 0 25.54-6.64 8.55-17.59 15.96-30.39 22.87h.03C32.16 75.97 13.3 105.22 13.3 138.92c0 48.58 39.15 87.96 87.45 87.96s87.45-39.38 87.45-87.96c0-23.04-8.81-43.99-23.23-59.67h-.01Z" style="fill:#ef4b87;stroke:#231f20;stroke-miterlimit:10;stroke-width:.5px"/><path d="M141.97 76.73h.01L103.2 42.81c-3.76 9.47-12.17 17.66-24.58 24.74-30.23 9.47-52.18 37.84-52.18 71.37 0 41.27 33.27 74.73 74.3 74.73s74.3-33.46 74.3-74.73c0-25.94-13.13-48.78-33.07-62.18h-.01Z" style="stroke:#231f20;stroke-miterlimit:10;stroke-width:.5px;fill:#fff"/></g><g id="dragonfruit_dots"><circle cx="105.68" cy="59.41" r="2.47" class="cls-1"/><circle cx="83.73" cy="74.05" r="2.47" class="cls-1"/><circle cx="103.21" cy="78.98" r="2.47" class="cls-1"/><circle cx="86.19" cy="87.84" r="2.47" class="cls-1"/><circle cx="92.24" cy="103.51" r="2.47" class="cls-1"/><circle cx="79.98" cy="115.24" r="2.47" class="cls-1"/><circle cx="103.21" cy="119.42" r="2.47" class="cls-1"/><circle cx="84.91" cy="135.09" r="2.47" class="cls-1"/><circle cx="78.02" cy="153.98" r="2.47" class="cls-1"/><circle cx="97.17" cy="148.54" r="2.47" class="cls-1"/><circle cx="92.14" cy="162.84" r="2.47" class="cls-1"/><circle cx="82.45" cy="173.98" r="2.47" class="cls-1"/><circle cx="102.78" cy="193.56" r="2.47" class="cls-1"/><circle cx="103.73" cy="176.88" r="2.47" class="cls-1"/><circle cx="115.13" cy="169.65" r="2.47" class="cls-1"/><circle cx="111.13" cy="156.45" r="2.47" class="cls-1"/><circle cx="145.6" cy="161.39" r="2.47" class="cls-1"/><circle cx="129.68" cy="153.47" r="2.47" class="cls-1"/><circle cx="144.49" cy="144.54" r="2.47" class="cls-1"/><circle cx="130.23" cy="135.09" r="2.47" class="cls-1"/><circle cx="122.45" cy="123.84" r="2.47" class="cls-1"/><circle cx="113.6" cy="107.67" r="2.47" class="cls-1"/><circle cx="144.49" cy="122.91" r="2.47" class="cls-1"/><circle cx="155.08" cy="135.09" r="2.47" class="cls-1"/><circle cx="111.56" cy="137.89" r="2.47" class="cls-1"/><circle cx="63.98" cy="125.38" r="2.47" class="cls-1"/><circle cx="46.35" cy="135.42" r="2.47" class="cls-1"/><circle cx="58.52" cy="147.43" r="2.47" class="cls-1"/><circle cx="132.57" cy="107.32" r="2.47" class="cls-1"/><circle cx="151.31" cy="98.56" r="2.47" class="cls-1"/><circle cx="162.54" cy="118.56" r="2.47" class="cls-1"/><circle cx="70.02" cy="98.56" r="2.47" class="cls-1"/><circle cx="66.45" cy="85.37" r="2.47" class="cls-1"/><circle cx="50.02" cy="98.05" r="2.47" class="cls-1"/><circle cx="52.48" cy="113.55" r="2.47" class="cls-1"/><circle cx="37.59" cy="118.83" r="2.47" class="cls-1"/><circle cx="33.84" cy="144.97" r="2.47" class="cls-1"/><circle cx="44.31" cy="158.91" r="2.47" class="cls-1"/><circle cx="42.44" cy="175.01" r="2.47" class="cls-1" transform="rotate(-88.09 42.447 175.01)"/><circle cx="63.63" cy="172.54" r="2.47" class="cls-1"/><circle cx="56.99" cy="192.45" r="2.47" class="cls-1"/><circle cx="74.87" cy="196.03" r="2.47" class="cls-1"/><circle cx="88.06" cy="186.84" r="2.47" class="cls-1"/><circle cx="94.62" cy="203.95" r="2.47" class="cls-1"/><circle cx="115.13" cy="203.95" r="2.47" class="cls-1"/><circle cx="117.6" cy="186.84" r="2.47" class="cls-1"/><circle cx="134.91" cy="195.87" r="2.47" class="cls-1"/><circle cx="143.81" cy="181.4" r="2.47" class="cls-1"/><circle cx="132.69" cy="170.16" r="2.47" class="cls-1"/><circle cx="157.55" cy="171.52" r="2.47" class="cls-1"/><circle cx="160.02" cy="152.29" r="2.47" class="cls-1"/><circle cx="169.38" cy="139.61" r="2.47" class="cls-1" transform="rotate(-80.78 169.381 139.606)"/><circle cx="124.24" cy="70.3" r="2.47" class="cls-1"/><circle cx="117.52" cy="90.91" r="2.47" class="cls-1"/><circle cx="135.05" cy="85.37" r="2.47" class="cls-1"/></g></g></g></svg>