<svg xmlns="http://www.w3.org/2000/svg" id="Layer_2" data-name="Layer 2" viewBox="0 0 176.39 173.58"><defs><style>.cls-1{fill:#231f20}.cls-3,.cls-5{stroke:#231f20;stroke-miterlimit:10;stroke-width:.5px}.cls-3{fill:#f8ebb0}.cls-5{fill:none}</style></defs><g id="Layer_1-2" data-name="Layer 1"><g id="grapefruit"><g id="grapefruit_body"><path d="M25.06 145.81s8.23 16.82 46.39 24.93c0 0 37.08 9.84 62.86-8.83 0 0 27.51-16.03 36.8-48.55 0 0 7.11-15.33 4.43-43.45-4.31-18.03-11.24-31.25-21.05-39.21" style="fill:#f37c21;stroke:#231f20;stroke-miterlimit:10;stroke-width:.5px"/><path d="M162.37 50.46c-2.35-12.75-9.03-24.39-21.33-34.57C121.64-2.15 92.16.37 92.16.37 61.8.4 29.85 32.19 29.85 32.19S2.89 55.45 1.01 83.87c0 0-7.41 42.88 24.05 61.94 0 0 50.58 28.42 108.34-24.65 19.09-20.78 30.31-43.88 28.98-70.7Z" style="stroke:#231f20;stroke-miterlimit:10;stroke-width:.5px;fill:#eec51d"/><path d="M157.18 52.15c-2.2-11.93-8.45-22.82-19.97-32.36C119.06 2.92 91.47 5.27 91.47 5.27c-28.41.03-58.31 29.78-58.31 29.78S7.93 56.82 6.17 83.41c0 0-6.94 40.12 22.51 57.97 0 0 47.34 26.6 101.39-23.08 17.86-19.45 28.36-41.07 27.12-66.16Z" class="cls-3"/><path d="M116.63 114.72c4.62.15 8.99-1.18 13.11-3.89 5.29-3.56 9.04-7.63 11.42-12.14 2.43-5.42 3.49-12.12 3.65-19.67 5.2-5.92 7.7-10.85 7.65-14.82 1.42-3.85-.61-7.21-4.37-10.34 2.03-5.34 1.41-9.28-.85-12.37-1.85-6.29-5.79-9.6-11.3-10.69-1.76-5.8-4.65-10.57-10.2-12.87-8.41-4.92-17.78-5.45-28.3-.85-6.24-7.73-15.69-7.3-26.24-3.89-9.81 2.47-15.58 7.3-15.91 15.31-7.19.2-13.83 2.85-19.43 10.08-5.02 5.05-7.69 10.56-6.19 16.88-6.94 4.74-12.12 11.38-14.7 20.89-2 7.84-1.29 14.81 3.28 20.53-1.73 7.91-1.17 15.51 2.43 22.71 3.12 6.44 8.48 10.22 15.43 12.14 4.79 1.02 9.2.98 12.99-.85 1.01 4.2 5.11 5.89 11.66 5.59 15.19-.49 24.8-3.88 27.81-10.69 5.63 2.28 11.36 2.34 17.25-.97 5.07-1.78 8.7-5.12 10.81-10.08Z" style="fill:#f79022;stroke:#231f20;stroke-miterlimit:10;stroke-width:.5px"/></g><g id="grapefruit_inner"><path d="M72.3 54.72c3.1 4.87 6.69 5.71 11.12-.49-.72 5.29 2.2 7.49 10.62 4.98-2.48 5.79-2.59 10.55 1.21 13.6-4.57 2.5-7.63 6.41-7.89 12.87-2.41-2.2-4.89-.33-7.41 5.1-2.01-1.92-4.15-1.97-6.44 0 .14-5.14-1.73-8.58-6.07-9.96 4.42-4.95 4.66-10.15-2.18-15.79 5.82-1.11 8.43-4.37 7.04-10.33Z" class="cls-3"/><path d="M65.26 65.05c-4.71-2.06-12.39-3.6-23.05-4.62M72.3 54.72c-1.52-3.35-4.92-7.86-8.87-12.69M83.42 54.24c1.18-7.77 5.23-16.26 9.94-24.91M94.04 59.22c6.41-3.66 12.28-7.35 15.9-11.17 3.89-3.33 8.81-5.67 14.21-7.56M95.25 72.82c6.63 2.33 19.47 3.1 39.23 2.14M87.36 85.69c7.63 5.57 14.85 12.19 21.57 20.1M79.95 90.79c3.44 5.37 6.1 14.61 7.41 30.67M73.51 90.79c-9.28 10.47-17.72 21.93-23.83 36.18M67.44 80.83c-8.66 3.55-17.07 6.19-25.1 7.38" class="cls-5"/></g><g id="grapefruit_dots"><ellipse cx="68.45" cy="163.45" class="cls-1" rx="1.32" ry=".96"/><ellipse cx="80.6" cy="155.84" class="cls-1" rx="1.16" ry="1.61" transform="rotate(-82.66 80.6 155.84)"/><ellipse cx="95.36" cy="160.34" class="cls-1" rx=".98" ry="1.76" transform="rotate(-78.31 95.36 160.334)"/><ellipse cx="106.36" cy="164.98" class="cls-1" rx="1.43" ry=".79" transform="rotate(-3.86 106.294 165.052)"/><ellipse cx="98.58" cy="149.83" class="cls-1" rx="1.06" ry=".59" transform="rotate(-3.86 98.638 149.791)"/><ellipse cx="113.97" cy="148.5" class="cls-1" rx="1.5" ry=".83" transform="rotate(-3.86 113.981 148.526)"/><path d="M119.55 152.37c0 .57-.83 1.03-1.87 1.03s-1.87-.46-1.87-1.03.83-1.03 1.87-1.03 1.87.46 1.87 1.03ZM131.54 137.16c0 .52-.65.94-1.44.94s-1.44-.42-1.44-.94.65-.94 1.44-.94 1.44.42 1.44.94Z" class="cls-1"/><ellipse cx="138.07" cy="147.37" class="cls-1" rx="1.21" ry=".8" transform="rotate(-3.86 138.084 147.407)"/><ellipse cx="143.5" cy="132.91" class="cls-1" rx=".68" ry="1.03" transform="rotate(-89.64 143.498 132.91)"/><ellipse cx="143.11" cy="127.71" class="cls-1" rx=".54" ry=".83" transform="rotate(-89.64 143.106 127.71)"/><ellipse cx="149.69" cy="139.17" class="cls-1" rx="1.28" ry="1.72" transform="rotate(-85.84 149.686 139.174)"/><ellipse cx="144.54" cy="126.86" class="cls-1" rx=".98" ry="1.31" transform="rotate(-73.97 144.536 126.867)"/><ellipse cx="143.36" cy="115.76" class="cls-1" rx="1.56" ry=".98"/><ellipse cx="156.6" cy="105.65" class="cls-1" rx="1.62" ry=".92"/><ellipse cx="165.68" cy="107.32" class="cls-1" rx="1.46" ry=".93" transform="rotate(-9.6 165.66 107.334)"/><ellipse cx="170.36" cy="96.18" class="cls-1" rx=".66" ry="1.03" transform="rotate(-89.6 170.366 96.18)"/><ellipse cx="163.18" cy="91.81" class="cls-1" rx=".9" ry="1.41" transform="rotate(-89.6 163.18 91.804)"/><ellipse cx="169.34" cy="76.64" class="cls-1" rx=".79" ry="1.24" transform="rotate(-86.41 169.337 76.634)"/><ellipse cx="171.06" cy="62.57" class="cls-1" rx="1.48" ry=".94" transform="rotate(-14.1 171.068 62.574)"/><ellipse cx="162.47" cy="77.45" class="cls-1" rx="1.24" ry=".79" transform="rotate(-1.1 162.298 77.61)"/><ellipse cx="156.22" cy="123.71" class="cls-1" rx=".69" ry=".93" transform="rotate(-84.73 156.219 123.703)"/><ellipse cx="119.32" cy="157.13" class="cls-1" rx=".71" ry=".39"/><ellipse cx="84.38" cy="167.52" class="cls-1" rx="1.23" ry=".7"/></g></g></g></svg>