<svg xmlns="http://www.w3.org/2000/svg" id="Layer_2" data-name="Layer 2" viewBox="0 0 178.93 212.12"><defs><style>.cls-2,.cls-3{stroke:#231f20;stroke-miterlimit:10;stroke-width:.5px}.cls-2{fill:#f1ed79}.cls-3{fill:#f6e724}</style></defs><g id="Layer_1-2" data-name="Layer 1"><g id="lemon"><path id="lemon_large" d="M93.19 197.72s-30.28 24.78-70.64 8.78c0 0-25.94 10.87-17.75-16.36 0 0-22.46-55.46 32.5-98.37 0 0 33.29-27.55 79.64-13.2 0 0 23.46-6.74 16.36 17.22l2.65 13.26" class="cls-3"/><g id="lemon_small"><circle cx="127.43" cy="159.58" r="51.25" class="cls-3"/><circle cx="127.34" cy="159.35" r="44.56" style="stroke:#231f20;stroke-miterlimit:10;stroke-width:.5px;fill:#fff" transform="rotate(-85.93 127.349 159.352)"/><g id="lemon_triangles"><path d="M126.19 118.56v36.49L99.5 129.33c7.83-7.19 16.58-11.26 26.69-10.77ZM155.35 128.89l-25.72 26.15v-36.53c9.63 0 18.28 3.54 25.72 10.38ZM86.37 157.52h37.46l-26.8-26.15c-6.83 6.53-9.96 15.52-10.66 26.15ZM168.81 157.52h-37.46l26.69-26.15c6.62 7 9.87 15.91 10.77 26.15ZM157.83 187.23l-26.47-26.37h37.46c.22 9.43-3.45 18.23-10.98 26.37ZM129.63 200.57v-37.35l25.72 26.47c-6.87 7.06-15.56 10.46-25.72 10.87ZM99.5 190.13l26.69-26.9v37.35c-8.89.89-17.8-2.58-26.69-10.44ZM86.37 160.86h37.46l-26.37 26.37c-6.53-6.43-10.62-14.89-11.09-26.37Z" class="cls-2"/></g></g><g id="lemon_leaf"><path d="M116.94 78.56s-23.39-4.77-32.58-31.57c0 0-6.67-21.67 13.52-46.71 0 0 28.3 7 37.67 30.78 3.73 12.18 4.65 25.86-8.47 46.96" style="fill:#53a045;stroke:#231f20;stroke-miterlimit:10;stroke-width:.5px"/><path d="M124.95 73.97c14.32-25.33 5.73-43.17 5.73-43.17C122.83 10.86 99.11 5 99.11 5 82.18 25.98 87.77 44.15 87.77 44.15c1.2 4.65 2.81 8.3 4.66 11.2 0 0 7.22 13.88 22.64 19.84l6.55 2.44c.97-.73 2.04-1.83 3.32-3.66Z" style="fill:#62ae45"/><path d="m119.63 77.56-14.86-54.9 18.8 54.63" style="fill:#53a045"/></g></g></g></svg>