<svg xmlns="http://www.w3.org/2000/svg" id="Layer_2" data-name="Layer 2" viewBox="0 0 174.59 135.83"><defs><style>.cls-1{fill:#bed731;stroke:#231f20;stroke-width:.5px;stroke-miterlimit:10}</style></defs><g id="Layer_1-2" data-name="Layer 1"><g id="lime"><g id="lime_body"><path d="M9.99 1.79C-13.5 54.92 14.3 114.5 61.76 130.24c40.44 13.41 89.41-6.91 110.97-50.52C132.56 44.96 78.68 20.91 9.99 1.79Z" style="fill:#f4f4c1;stroke-width:3px;stroke:#bed731;stroke-miterlimit:10"/><path d="m9.78 1.79 162.96 77.94L9.78 1.79Z" style="stroke:#bed731;fill:none;stroke-width:2px;stroke-miterlimit:10"/></g><g id="lime_triangles"><path d="M70.05 40.56C68.12 39.4 42.2 23.94 29.79 20.67c-4.21-1.12-7.19-.91-9.61.39-2.87 1.51-4.35 4.17-5.05 5.82-.49 2.66-1.09 6.07-1.65 10.03-1.86 13.33-1.16 17.01 0 19.89.81 2 2.07 5.12 5.12 6.66 4.17 2.1 9.08-.07 11.19-.98 8.49-3.61 22.06-8.35 40.26-14.38 1.4-.66 2.35-2.03 2.42-3.58.07-1.65-.88-3.22-2.42-3.96ZM73.27 55.33c-2.18.49-31.6 7.33-42.79 13.54-3.79 2.1-5.82 4.32-6.66 6.91-1.02 3.09-.24 6 .39 7.68 1.47 2.24 3.4 5.12 5.79 8.38 7.89 10.91 10.94 13.08 13.78 14.34 1.97.88 5.05 2.24 8.31 1.26 4.45-1.37 6.53-6.35 7.4-8.45C63.1 90.5 69.63 77.7 78.57 60.73c.56-1.44.28-3.09-.74-4.24-1.09-1.26-2.87-1.72-4.49-1.19l-.07.03ZM82.07 63.81c-1.09 1.93-15.85 28.3-18.8 40.79-.98 4.24-.7 7.19.63 9.61 1.58 2.84 4.28 4.24 5.96 4.91 2.66.42 6.1.91 10.06 1.37 13.36 1.51 17.04.7 19.89-.53 1.97-.88 5.05-2.21 6.53-5.3 2-4.21-.32-9.08-1.26-11.15-3.86-8.38-8.94-21.81-15.47-39.84-.7-1.4-2.1-2.28-3.64-2.32-1.65 0-3.19.98-3.89 2.53v-.07ZM97.01 61.46c.56 2.18 8.03 31.42 14.52 42.47 2.21 3.75 4.45 5.72 7.08 6.53 3.09.95 6.03.11 7.68-.56 2.21-1.55 5.05-3.54 8.24-5.96 10.73-8.14 12.83-11.26 14.03-14.1.84-1.97 2.14-5.09 1.09-8.35-1.47-4.42-6.49-6.35-8.62-7.22-8.56-3.4-21.5-9.64-38.68-18.2a4.165 4.165 0 0 0-4.24.84c-1.23 1.12-1.65 2.91-1.09 4.53v.03Z" class="cls-1"/></g></g></g></svg>