<svg xmlns="http://www.w3.org/2000/svg" id="Layer_2" data-name="Layer 2" viewBox="0 0 160.75 165.08"><defs><style>.cls-2{stroke-miterlimit:10;fill:#f47423;stroke:#231f20;stroke-width:.5px}</style></defs><g id="Layer_1-2" data-name="Layer 1"><g id="orange"><path id="orange_body" d="M9.64 48.75C32.53 4.13 87.61-9.6 123.96 13.69c30.97 19.85 43.94 63.75 26.4 101.91l-.02-.16c-18.61 37.65-60.9 55.19-95.81 43.62-40.98-13.6-64.97-65.04-44.7-110.91" style="stroke-miterlimit:10;fill:#fedec1;stroke:#f47423;stroke-width:5px"/><g id="orange_triangles"><path d="M63.3 78.21c-1.79-1.07-25.89-15.45-37.42-18.48-3.91-1.04-6.69-.85-8.93.36-2.68 1.4-4.04 3.88-4.69 5.41-.46 2.48-1.01 5.64-1.53 9.33-1.73 12.39-1.07 15.81 0 18.48.75 1.86 1.92 4.76 4.76 6.19 3.88 1.96 8.44-.07 10.4-.91 7.89-3.36 20.51-7.76 37.42-13.36 1.31-.62 2.18-1.89 2.25-3.33.07-1.53-.81-3-2.25-3.68ZM66.3 91.93c-2.02.46-29.37 6.82-39.77 12.58-3.52 1.96-5.41 4.01-6.19 6.42-.94 2.87-.22 5.58.36 7.14 1.37 2.09 3.16 4.76 5.38 7.79 7.34 10.14 10.17 12.16 12.81 13.33 1.83.81 4.69 2.09 7.72 1.17 4.14-1.27 6.06-5.9 6.88-7.85 3.36-7.89 9.42-19.79 17.74-35.57.52-1.33.26-2.87-.68-3.94-1.01-1.17-2.68-1.6-4.17-1.11l-.07.03ZM74.48 99.82c-1.01 1.79-14.73 26.31-17.48 37.91-.91 3.94-.65 6.69.59 8.93 1.46 2.64 3.97 3.94 5.54 4.56 2.48.39 5.67.85 9.35 1.27 12.42 1.4 15.84.65 18.48-.49 1.83-.81 4.69-2.05 6.06-4.92 1.86-3.91-.29-8.44-1.17-10.37-3.59-7.79-8.31-20.27-14.38-37.03a3.865 3.865 0 0 0-3.39-2.15c-1.53 0-2.97.91-3.62 2.35v-.07h.01ZM88.36 97.64c.52 2.02 7.47 29.21 13.49 39.48 2.05 3.49 4.14 5.32 6.58 6.06 2.87.88 5.61.09 7.14-.52 2.05-1.44 4.69-3.29 7.66-5.54 9.98-7.56 11.93-10.46 13.04-13.1.78-1.83 1.99-4.73 1.01-7.76-1.37-4.1-6.03-5.9-8.02-6.71-7.95-3.16-19.98-8.96-35.96-16.92-1.37-.49-2.87-.2-3.94.78-1.14 1.04-1.53 2.7-1.01 4.21v.03ZM66.64 71.38c1.43.69 3.13.44 4.28-.57 1.07-.95 1.51-2.44 1.17-3.84C65.8 50.3 61.28 37.72 58.92 29.48c-.57-2.06-1.87-6.87-5.83-8.66-2.9-1.3-5.89-.39-7.81.2-2.75.85-5.83 2.5-14.36 11.63-2.53 2.72-4.64 5.14-6.28 7.06-.78 1.47-1.85 4.09-1.25 7.05.48 2.5 2.07 4.79 5.35 7.17 9.62 7.06 35.95 16.74 37.92 17.45ZM79.2 65.08l.02.07c.56 1.47 1.94 2.5 3.49 2.54 1.43.06 2.79-.71 3.49-1.95 7.03-16.39 12.46-28.59 16.48-36.17 1-1.86 3.39-6.27 1.77-10.29-1.2-2.93-3.99-4.35-5.77-5.26-2.57-1.31-5.93-2.24-18.43-1.57-3.75.18-6.95.47-9.44.72-1.58.53-4.14 1.68-5.77 4.22-1.38 2.13-1.79 4.88-1.1 8.86C66 37.96 78.27 63.22 79.19 65.08ZM90.46 66.46l.05-.04c-.71 1.41-.51 3.1.45 4.29a3.88 3.88 0 0 0 3.81 1.28c16.84-5.83 29.52-10.02 37.83-12.13 2.06-.53 6.93-1.71 8.8-5.61 1.37-2.87.53-5.88.01-7.81-.78-2.77-2.35-5.9-11.25-14.67-2.65-2.6-5.01-4.79-6.87-6.47-1.46-.83-4.06-1.96-7.03-1.43-2.53.45-4.82 1.97-7.31 5.17-7.29 9.43-17.71 35.53-18.46 37.44h-.01ZM97.51 78.63l-.02.02c-1.5.54-2.54 1.89-2.63 3.43-.09 1.45.63 2.8 1.87 3.56 16.23 7.41 28.31 13.11 35.78 17.3 1.88 1.03 6.21 3.52 10.27 2.01 2.97-1.15 4.47-3.91 5.4-5.67 1.35-2.52 2.38-5.86 1.98-18.38-.12-3.72-.34-6.94-.51-9.44-.49-1.58-1.6-4.2-4.09-5.88-2.12-1.43-4.85-1.9-8.85-1.3-11.77 1.78-37.27 13.49-39.17 14.36Z" class="cls-2"/></g></g></g></svg>