<?xml version="1.0" encoding="UTF-8"?>
<svg id="Layer_2" data-name="Layer 2" xmlns="http://www.w3.org/2000/svg" viewBox="0 0 173.65 173.65">
  <defs>
    <style>
      .cls-1 {
        fill: #fff;
      }

      .cls-1, .cls-2 {
        stroke: #000;
        stroke-miterlimit: 10;
      }

      .cls-2 {
        stroke-width: 8px;
      }
    </style>
  </defs>
  <g id="Stopwatch">
    <g>
      <rect class="cls-2" x="4" y="4" width="165.65" height="165.65" rx="45" ry="45"/>
      <path class="cls-1" d="M90.14,19.06h23.12c1.07,20.22,10.91,31.98,32.24,32.65v23.28c-10.92.72-21.66-2.88-32.24-10.76v45.18c-.95,28.18-16.31,41.73-41.61,45.18-26.99-4.15-42.59-18.15-43.1-45.18.27-3.77,1.64-16.63,12.06-27.32,14.28-14.65,33.62-12.98,36.17-12.72v23.61c-13.51-2.24-22.21,2.9-25.43,16.42-.26,14.09,6.51,20.82,19.16,21.4,12.26-.75,19.71-6.82,19.49-21.4l.17-90.35Z"/>
    </g>
  </g>
</svg>