<?xml version="1.0" encoding="UTF-8"?>
<svg id="Layer_2" data-name="Layer 2" xmlns="http://www.w3.org/2000/svg" xmlns:xlink="http://www.w3.org/1999/xlink" viewBox="0 0 249.98 60.31">
  <defs>
    <style>
      .cls-1 {
        fill: #fff;
      }

      .cls-2 {
        filter: url(#outer-glow-1);
      }
    </style>
    <filter id="outer-glow-1" x="-3.3" y="-3.1" width="257" height="67" filterUnits="userSpaceOnUse">
      <feOffset dx="0" dy="0"/>
      <feGaussianBlur result="blur" stdDeviation="1"/>
      <feFlood flood-color="#fff" flood-opacity=".4"/>
      <feComposite in2="blur" operator="in"/>
      <feComposite in="SourceGraphic"/>
    </filter>
  </defs>
  <g id="Layer_1-2" data-name="Layer 1">
    <g class="cls-2">
      <g id="uuid-46ba9397-5d28-4d44-88ff-4d52d0f649ad" data-name="Layer 1-2">
        <g>
          <polygon class="cls-1" points="2.55 1.05 27.62 1.05 0 60.31 2.31 60.31 29.93 1.05 40.21 1.05 13.15 59.15 13.04 59.26 12.57 60.31 42.51 60.31 42.51 59.26 42.51 48.77 40.42 48.77 40.42 59.26 15.35 59.26 42.97 0 .46 0 .46 1.05 .46 11.54 2.55 11.54 2.55 1.05"/>
          <polygon class="cls-1" points="55.52 59.26 55.52 60.31 70.2 60.31 70.2 0 55.52 0 55.52 1.05 68.11 1.05 68.11 59.26 55.52 59.26"/>
          <polygon class="cls-1" points="93.7 60.31 93.7 59.26 81.11 59.26 81.11 1.05 93.7 1.05 93.7 0 79.01 0 79.01 60.31 93.7 60.31"/>
          <polygon class="cls-1" points="105.65 59.26 105.65 60.31 124.85 60.31 124.85 59.26 116.25 59.26 116.25 5.03 136.32 60.31 140.02 60.31 160.09 5.03 160.09 59.26 151.59 59.26 151.59 60.31 162.19 60.31 162.19 0 159.71 0 144.04 43 128.38 0 126.18 0 142.99 46.04 138.17 59.26 116.63 0 105.76 0 105.76 1.05 114.15 1.05 114.15 59.26 105.65 59.26"/>
          <path class="cls-1" d="M193.55,60.31v-1.05h-8.6l7.76-21.4h26.12l7.76,21.4h-8.71v1.05h11.16l-.04-.1L207.14,0h-9.82v1.05h6.5l-21.19,58.21h-8.29v1.05h19.21ZM205.61,1.99l12.27,33.77h-24.54L205.61,1.99Z"/>
          <polygon class="cls-1" points="249.98 60.31 249.98 59.26 241.16 59.26 219.63 0 217.32 0 239.36 60.31 249.98 60.31"/>
        </g>
      </g>
    </g>
  </g>
</svg>